<svg xmlns="http://www.w3.org/2000/svg" width="38.735" height="38.735" viewBox="0 0 38.735 38.735">
  <path id="Trazado_296" data-name="Trazado 296" d="M1069.811,620.79a19.368,19.368,0,1,0,19.368,19.367A19.367,19.367,0,0,0,1069.811,620.79Zm-9.871,9.423h19.742a3.047,3.047,0,0,1,1.221.255.959.959,0,0,0-.251.2l-8.823,10.012a2.691,2.691,0,0,1-4.037,0l-8.979-10.188c-.014-.016-.032-.028-.046-.044A3.039,3.039,0,0,1,1059.94,630.213Zm22.793,16.839a3.05,3.05,0,0,1-3.05,3.05H1059.94a3.05,3.05,0,0,1-3.05-3.05v-13.79a3.031,3.031,0,0,1,.44-1.571.661.661,0,0,0,.047.066l8.98,10.188a4.606,4.606,0,0,0,6.91,0l8.823-10.012a.934.934,0,0,0,.173-.291,3.034,3.034,0,0,1,.469,1.62Z" transform="translate(-1050.444 -620.79)"/>
</svg>
