<svg id="Grupo_407" data-name="Grupo 407" xmlns="http://www.w3.org/2000/svg" width="38.736" height="38.736" viewBox="0 0 38.736 38.736">
  <path id="Trazado_286" data-name="Trazado 286" d="M1246.118,729.953a19.368,19.368,0,1,0,19.368,19.368A19.369,19.369,0,0,0,1246.118,729.953Zm.88,30.053a11.092,11.092,0,0,1-5.288-1.348l-6.056,1.622,1.615-6.025a11.118,11.118,0,1,1,9.729,5.75Z" transform="translate(-1226.75 -729.953)"/>
  <path id="Trazado_287" data-name="Trazado 287" d="M1246.026,739a9.007,9.007,0,0,0-7.7,13.7l.234.383-.9,3.364,3.383-.906.381.228A9.018,9.018,0,1,0,1246.026,739Zm5.3,12.429a2.692,2.692,0,0,1-2.016,1.5,4.24,4.24,0,0,1-2.223-.35,9.256,9.256,0,0,1-1.909-.909,10.876,10.876,0,0,1-3.062-2.842,12.02,12.02,0,0,1-.7-1.074,5.822,5.822,0,0,1-.677-1.558,3.1,3.1,0,0,1-.088-.705,2.8,2.8,0,0,1,.972-2.221,1.272,1.272,0,0,1,1.381-.2,2.971,2.971,0,0,1,.928,1.4,2.324,2.324,0,0,1,.292,1.258,2.445,2.445,0,0,1-.653,1.062.441.441,0,0,0-.056.6,7.21,7.21,0,0,0,3.6,3.084.4.4,0,0,0,.513-.111c.267-.331.532-.979.946-1.148a1.872,1.872,0,0,1,1.593.359c.427.255,1.14.568,1.255,1.095A1.308,1.308,0,0,1,1251.326,751.431Z" transform="translate(-1225.778 -729.095)"/>
</svg>
